<svg id="Layer_1" enable-background="new 0 0 512 512" height="512" viewBox="0 0 512 512" width="512" xmlns="http://www.w3.org/2000/svg"><g fill="#6994ff"><path d="m185.494 124.436-28.864 28.864-115.467-115.467 28.864-28.864c11.957-11.957 31.349-11.957 43.307 0 76.132 76.132 72.313 72.306 72.469 72.48 11.648 11.979 11.541 31.136-.309 42.987z"/><path d="m474.166 470.836-21.653 21.653c-51.808 51.808-190.741-3.115-310.315-122.688-98.496-98.495-153.12-210.122-140.363-275.381 5.023-25.683 15.893-33.152 39.328-56.587l115.467 115.467c-22.897 22.897-21.992 21.955-22.475 22.539-18.261 20.8 10.773 81.227 65.781 136.224 55.797 55.808 117.184 84.885 137.109 64.96l21.653-21.653z"/><path d="m503.03 441.972-28.864 28.864-115.467-115.467 28.864-28.864c11.957-11.957 31.349-11.957 43.307 0 76.133 76.132 72.315 72.308 72.469 72.48 11.648 11.979 11.541 31.136-.309 42.987z"/></g><path d="m185.803 81.449c-13.594 15.125-40.904 17.453-58.037.32l-65.27-65.269 7.531-7.531c11.959-11.959 31.348-11.959 43.306 0 76.133 76.132 72.313 72.306 72.47 72.48z" fill="#80aaff"/><path d="m452.512 449.823c-51.808 51.808-190.741-3.115-310.315-122.688-79.434-79.435-130.335-167.414-140.362-232.715 5.023-25.683 15.893-33.152 39.328-56.587 10.715 10.716 104.725 104.725 115.467 115.467-22.897 22.897-21.992 21.955-22.475 22.539-18.261 20.8 10.773 81.227 65.781 136.224 55.797 55.808 117.184 84.885 137.109 64.96l21.653-21.653c101.515 101.513 94.311 93.957 93.814 94.453z" fill="#80aaff"/><path d="m503.339 398.986c-13.689 15.194-40.962 17.395-58.037.32l-65.269-65.269 7.531-7.53c11.959-11.959 31.348-11.958 43.307 0 76.132 76.131 72.313 72.306 72.468 72.479z" fill="#80aaff"/><path d="m326.401 239.999c-8.837 0-16-7.164-16-16 0-12.352-10.049-22.4-22.4-22.4-8.837 0-16-7.164-16-16s7.163-16 16-16c29.996 0 54.4 24.404 54.4 54.4 0 8.836-7.163 16-16 16z" fill="#8dffff"/><path d="m403.201 239.999c-8.837 0-16-7.164-16-16 0-54.699-44.501-99.2-99.2-99.2-8.837 0-16-7.164-16-16s7.163-16 16-16c72.344 0 131.2 58.856 131.2 131.2 0 8.836-7.164 16-16 16z" fill="#8dffff"/><path d="m480 239.999c-8.837 0-16-7.164-16-16 0-97.047-78.953-176-176-176-8.837 0-16-7.164-16-16s7.163-16 16-16c114.691 0 208 93.309 208 208 0 8.836-7.163 16-16 16z" fill="#8dffff"/></svg>